Input #0, mov,mp4,m4a,3gp,3g2,mj2, from '/home/hbattu/projects/huberman-gpt/huberman-audio/mp3/tmpdtqpqlql.mp4':
  Metadata:
    major_brand     : dash
    minor_version   : 0
    compatible_brands: iso6mp41
    creation_time   : 2023-03-24T20:29:52.000000Z
  Duration: 03:29:55.43, start: 0.000000, bitrate: 129 kb/s
    Stream #0:0(eng): Audio: aac (LC) (mp4a / 0x6134706D), 44100 Hz, stereo, fltp, 0 kb/s (default)
    Metadata:
      creation_time   : 2023-03-24T20:29:52.000000Z
      handler_name    : ISO Media file produced by Google Inc.
Stream mapping:
  Stream #0:0 -> #0:0 (aac (native) -> mp3 (libmp3lame))
Press [q] to stop, [?] for help
[graph_0_in_0_0 @ 0x55bdab1a8e80] tb:1/44100 samplefmt:fltp samplerate:44100 chlayout:0x3
Output #0, mp3, to '../huberman-audio/mp3/ufsIA5NARIo.mp3':
  Metadata:
    major_brand     : dash
    minor_version   : 0
    compatible_brands: iso6mp41
    TSSE            : Lavf58.29.100
    Stream #0:0(eng): Audio: mp3 (libmp3lame), 44100 Hz, stereo, fltp, delay 1105 (default)
    Metadata:
      creation_time   : 2023-03-24T20:29:52.000000Z
      handler_name    : ISO Media file produced by Google Inc.
      encoder         : Lavc58.54.100 libmp3lame
No more output streams to write to, finishing.
size=  196804kB time=03:29:55.43 bitrate= 128.0kbits/s speed=94.5x    
[AVIOContext @ 0x55bdab08c900] Statistics: 0 seeks, 267 writeouts
video:0kB audio:196804kB subtitle:0kB other streams:0kB global headers:0kB muxing overhead: 0.000172%
Input file #0 (/home/hbattu/projects/huberman-gpt/huberman-audio/mp3/tmpdtqpqlql.mp4):
  Input stream #0:0 (audio): 542440 packets read (201527158 bytes); 542440 frames decoded (555458560 samples); 
  Total: 542440 packets (201527158 bytes) demuxed
Output file #0 (../huberman-audio/mp3/ufsIA5NARIo.mp3):
  Output stream #0:0 (audio): 482169 frames encoded (555458560 samples); 482170 packets muxed (201527379 bytes); 
  Total: 482170 packets (201527379 bytes) muxed
[AVIOContext @ 0x55bdab0c4040] Statistics: 2 seeks, 770 writeouts
[AVIOContext @ 0x55bdab095880] Statistics: 203843974 bytes read, 0 seeks
